<?xml version="1.0" encoding="UTF-8"?>
<!DOCTYPE svg PUBLIC "-//W3C//DTD SVG 1.1//EN" "http://www.w3.org/Graphics/SVG/1.1/DTD/svg11.dtd">
<!-- Creator: CorelDRAW 2021 (64-Bit) -->
<svg xmlns="http://www.w3.org/2000/svg" xml:space="preserve" width="56px" height="56px" version="1.1" style="shape-rendering:geometricPrecision; text-rendering:geometricPrecision; image-rendering:optimizeQuality; fill-rule:evenodd; clip-rule:evenodd"
viewBox="0 0 0.62 0.62"
 xmlns:xlink="http://www.w3.org/1999/xlink"
 xmlns:xodm="http://www.corel.com/coreldraw/odm/2003">
 <defs>
  <style type="text/css">
   <![CDATA[
    .str0 {stroke:#22C55E;stroke-width:0.03;stroke-linecap:round;stroke-linejoin:round;stroke-miterlimit:22.9256}
    .fil0 {fill:none}
    .fil1 {fill:#22C55E}
    .fil2 {fill:white}
   ]]>
  </style>
 </defs>
 <g id="Layer_x0020_1">
  <metadata id="CorelCorpID_0Corel-Layer"/>
  <g id="_2729658768624">
   <circle class="fil0 str0" cx="0.31" cy="0.31" r="0.3"/>
   <path class="fil1" d="M0.26 0.29c0,-0.01 -0.03,-0.02 -0.04,-0.04 -0.01,-0.01 -0.02,-0.04 -0.01,-0.06 0,-0.04 0.03,-0.07 0.07,-0.08 0.05,-0.01 0.1,0.01 0.15,0.01 0,-0.01 0.01,-0.01 0.01,-0.01 0.01,0 0.01,0 0.02,0 0.01,-0.01 0,0.02 0,0.02 -0.01,0.01 -0.01,0.01 -0.03,0.01 -0.01,0 -0.02,0 -0.03,0 0,0.01 0.02,0.02 0.02,0.06 0,0.02 -0.01,0.04 -0.02,0.05 -0.02,0.03 -0.05,0.04 -0.08,0.04 -0.01,0.01 -0.02,0 -0.04,0 0,0 -0.01,0.01 -0.02,0.01 -0.01,0.01 -0.01,0.02 0,0.03 0.03,0 0.06,0 0.08,0 0.05,0 0.1,0.01 0.12,0.04 0.01,0.03 0.01,0.05 0,0.08 -0.01,0 -0.01,0 -0.01,0l-0.01 0.01 0 0.01c-0.01,0.01 -0.02,0.01 -0.03,0.02 -0.03,0.01 -0.08,0.02 -0.11,0.02 -0.05,0 -0.1,-0.02 -0.11,-0.06 0,-0.02 0.01,-0.04 0.02,-0.06 0.01,0 0.02,-0.01 0.03,-0.01 0,0 0.02,-0.01 0.02,-0.01 0,-0.01 -0.01,-0.01 -0.01,-0.01 -0.01,0 -0.01,0 -0.02,0 -0.01,-0.01 -0.01,-0.02 -0.01,-0.03 0,-0.02 0.02,-0.03 0.03,-0.03 0,-0.01 0.01,-0.01 0.01,-0.01zm0.04 -0.29l0.02 0 0 0c0,0 0,0 0.01,0 0,0 0.01,0 0.01,0 0.02,0.01 0.04,0.01 0.06,0.02 0.01,0 0.03,0.01 0.04,0.01 0,0 0,0 0.01,0l0.01 0.01c0.01,0 0.01,0.01 0.01,0.01l0.03 0.02 0.02 0.02c0,0 0.01,0 0.01,0.01 0,0 0.01,0 0.01,0.01l0 0c0.01,0 0.02,0.01 0.02,0.02 0.01,0.01 0.01,0.02 0.02,0.03 0,0 0,0 0,0l0 0.01c0,0 0.01,0 0.01,0.01l0 0.01c0,0 0.01,0.01 0.01,0.02 0.01,0.01 0.01,0.03 0.01,0.06l0.01 0.02c0,0 0,0.01 0,0.01l0 0.01c0,0.02 -0.01,0.05 -0.01,0.07 0,0.01 -0.01,0.02 -0.01,0.03 0,0 0,0 0,0 -0.01,0.01 -0.01,0.02 -0.01,0.02 -0.03,0.05 -0.06,0.1 -0.11,0.13 0,0 -0.01,0.01 -0.02,0.01 0,0 -0.01,0.01 -0.01,0.01 -0.01,0 -0.02,0.01 -0.04,0.01 -0.01,0.01 -0.01,0.01 -0.02,0.01 -0.01,0 -0.02,0 -0.04,0.01 -0.01,0 -0.03,0 -0.04,0 -0.01,0 -0.02,0 -0.02,0 -0.03,0 -0.05,-0.01 -0.07,-0.02l-0.02 0c0,0 0,0 0,0 0,0 -0.01,-0.01 -0.01,-0.01l-0.02 -0.01c-0.01,0 -0.01,0 -0.01,0l-0.01 -0.01c-0.01,0 -0.01,-0.01 -0.02,-0.01l-0.02 -0.02c0,0 0,0 -0.01,0 0,-0.01 0,-0.01 -0.01,-0.01l0 -0.01c0,0 0,0 0,0l-0.01 -0.01c0,0 0,0 0,0 0,-0.01 -0.01,-0.01 -0.01,-0.01 0,-0.01 -0.01,-0.02 -0.01,-0.02l-0.01 -0.01c0,0 0,0 0,-0.01l-0.01 -0.01c0,0 0,0 0,-0.01 0,0 0,0 -0.01,0l0 -0.02c0,0 0,0 0,0 0,-0.01 -0.01,-0.01 -0.01,-0.02 0,-0.01 -0.01,-0.03 -0.01,-0.04l0 -0.02c0,0 0,-0.01 0,-0.01l0 -0.02c0,0 0,-0.01 0,-0.02 0,-0.02 0,-0.03 0.01,-0.05 0,0 0,-0.01 0,-0.01 0,0 0,-0.01 0,-0.01 0.01,-0.01 0.01,-0.02 0.02,-0.03 0,0 0,0 0,0 0,-0.01 0,-0.01 0,-0.01l0.01 -0.01c0,-0.01 0.01,-0.01 0.01,-0.02l0.01 -0.01c0,-0.01 0,-0.01 0,-0.01l0.02 -0.02c0,0 0,0 0,0 0.01,-0.01 0.01,-0.01 0.02,-0.02 0,0 0,0 0,0 0,0 0,0 0,0 0,0 0,0 0,0l0.01 -0.01c0,0 0,0 0,0 0.01,0 0.01,-0.01 0.02,-0.01 0.01,-0.01 0.01,-0.01 0.02,-0.02 0.01,0 0.01,0 0.01,0 0.01,-0.01 0.01,-0.01 0.01,-0.01 0.02,0 0.03,-0.01 0.05,-0.01 0,-0.01 0.01,-0.01 0.01,-0.01 0.01,0 0.02,0 0.03,0 0.01,-0.01 0.01,-0.01 0.02,-0.01 0,0 0.01,0 0.01,0z"/>
   <path class="fil2" d="M0.3 0.37c0.03,0 0.08,0.01 0.11,0.02 0.01,0.01 0.01,0.01 0.02,0.02 0,0.01 0,0.03 0,0.04 -0.01,0 -0.01,0 -0.01,0.01 0,0 0,0 0,0 -0.02,0.02 -0.04,0.03 -0.07,0.03 -0.02,0 -0.05,0 -0.07,0 -0.04,-0.01 -0.07,-0.03 -0.05,-0.07 0,-0.02 0.02,-0.03 0.04,-0.04 0.01,0 0.02,-0.01 0.03,-0.01zm-0.01 -0.24c0.02,0 0.04,0 0.05,0.01 0.02,0.01 0.03,0.02 0.03,0.04 0.01,0.02 0.01,0.05 0,0.07 -0.01,0.01 -0.02,0.02 -0.04,0.03 -0.04,0.01 -0.07,-0.02 -0.08,-0.06 0,-0.02 -0.01,-0.04 0,-0.06 0,-0.01 0,-0.01 0.01,-0.02 0.01,-0.01 0.02,-0.01 0.03,-0.01zm-0.03 0.16c0,0 -0.01,0 -0.01,0.01 -0.01,0 -0.03,0.01 -0.03,0.03 0,0.01 0,0.02 0.01,0.03 0.01,0 0.01,0 0.02,0 0,0 0.01,0 0.01,0.01 0,0 -0.02,0.01 -0.02,0.01 -0.01,0 -0.02,0.01 -0.03,0.01 -0.01,0.02 -0.02,0.04 -0.02,0.06 0.01,0.04 0.06,0.06 0.11,0.06 0.03,0 0.08,-0.01 0.11,-0.02 0.01,-0.01 0.02,-0.01 0.03,-0.02l0 -0.01 0.01 -0.01c0,0 0,0 0.01,0 0.01,-0.03 0.01,-0.05 0,-0.08 -0.02,-0.03 -0.07,-0.04 -0.12,-0.04 -0.02,0 -0.05,0 -0.08,0 -0.01,-0.01 -0.01,-0.02 0,-0.03 0.01,0 0.02,-0.01 0.02,-0.01 0.02,0 0.03,0.01 0.04,0 0.03,0 0.06,-0.01 0.08,-0.04 0.01,-0.01 0.02,-0.03 0.02,-0.05 0,-0.04 -0.02,-0.05 -0.02,-0.06 0.01,0 0.02,0 0.03,0 0.02,0 0.02,0 0.03,-0.01 0,0 0.01,-0.03 0,-0.02 -0.01,0 -0.01,0 -0.02,0 0,0 -0.01,0 -0.01,0.01 -0.05,0 -0.1,-0.02 -0.15,-0.01 -0.04,0.01 -0.07,0.04 -0.07,0.08 -0.01,0.02 0,0.05 0.01,0.06 0.01,0.02 0.04,0.03 0.04,0.04z"/>
   <path class="fil1" d="M0.31 0.4c0.02,0 0.03,0.01 0.04,0.03 0,0.02 -0.02,0.03 -0.03,0.04 -0.02,0 -0.03,-0.02 -0.04,-0.03 0,-0.02 0.01,-0.04 0.03,-0.04zm-0.01 -0.03c-0.01,0 -0.02,0.01 -0.03,0.01 -0.02,0.01 -0.04,0.02 -0.04,0.04 -0.02,0.04 0.01,0.06 0.05,0.07 0.02,0 0.05,0 0.07,0 0.03,0 0.05,-0.01 0.07,-0.03 0,0 0,0 0,0 0,-0.01 0,-0.01 0.01,-0.01 0,-0.01 0,-0.03 0,-0.04 -0.01,-0.01 -0.01,-0.01 -0.02,-0.02 -0.03,-0.01 -0.08,-0.02 -0.11,-0.02z"/>
   <path class="fil1" d="M0.3 0.17c0.02,0 0.04,0.02 0.04,0.04 0,0.02 -0.02,0.03 -0.03,0.03 -0.02,0 -0.04,-0.01 -0.04,-0.03 0,-0.02 0.02,-0.04 0.03,-0.04zm-0.01 -0.04c-0.01,0 -0.02,0 -0.03,0.01 -0.01,0.01 -0.01,0.01 -0.01,0.02 -0.01,0.02 0,0.04 0,0.06 0.01,0.04 0.04,0.07 0.08,0.06 0.02,-0.01 0.03,-0.02 0.04,-0.03 0.01,-0.02 0.01,-0.05 0,-0.07 0,-0.02 -0.01,-0.03 -0.03,-0.04 -0.01,-0.01 -0.03,-0.01 -0.05,-0.01z"/>
   <path class="fil2" d="M0.3 0.17c-0.01,0 -0.03,0.02 -0.03,0.04 0,0.02 0.02,0.03 0.04,0.03 0.01,0 0.03,-0.01 0.03,-0.03 0,-0.02 -0.02,-0.04 -0.04,-0.04z"/>
   <path class="fil2" d="M0.31 0.4c-0.02,0 -0.03,0.02 -0.03,0.04 0.01,0.01 0.02,0.03 0.04,0.03 0.01,-0.01 0.03,-0.02 0.03,-0.04 -0.01,-0.02 -0.02,-0.03 -0.04,-0.03z"/>
  </g>
 </g>
</svg>
